<mxfile host="app.diagrams.net" agent="Mozilla/5.0 (Windows NT 10.0; Win64; x64) AppleWebKit/537.36 (KHTML, like Gecko) Chrome/134.0.0.0 Safari/537.36 Edg/134.0.0.0" version="26.0.16">
  <diagram name="Page-1" id="O3RF_QSyXw5MkjXzJmDC">
    <mxGraphModel dx="693" dy="429" grid="1" gridSize="10" guides="1" tooltips="1" connect="1" arrows="1" fold="1" page="1" pageScale="1" pageWidth="850" pageHeight="1100" math="0" shadow="0">
      <root>
        <mxCell id="0" />
        <mxCell id="1" parent="0" />
        <mxCell id="B6jd7QzCgzBGUs_DWfSZ-12" value="&lt;font style=&quot;font-size: 24px;&quot;&gt;&amp;nbsp; Multi-Stream QEMU &amp;lt;-&amp;gt; CMODEL&lt;/font&gt;" style="html=1;whiteSpace=wrap;align=left;verticalAlign=top;movable=0;resizable=0;rotatable=0;deletable=0;editable=0;locked=1;connectable=0;" vertex="1" parent="1">
          <mxGeometry x="10" y="10" width="1280" height="950" as="geometry" />
        </mxCell>
        <mxCell id="B6jd7QzCgzBGUs_DWfSZ-2" value="edu.c" style="swimlane;fontStyle=1;align=center;verticalAlign=top;childLayout=stackLayout;horizontal=1;startSize=26;horizontalStack=0;resizeParent=1;resizeParentMax=0;resizeLast=0;collapsible=1;marginBottom=0;whiteSpace=wrap;html=1;" vertex="1" parent="1">
          <mxGeometry x="30" y="100" width="510" height="300" as="geometry" />
        </mxCell>
        <mxCell id="B6jd7QzCgzBGUs_DWfSZ-3" value="&lt;b&gt;uint64_t edu_mmio_read(void *opaque, hwaddr addr, unsigned size)&amp;nbsp;&lt;/b&gt;" style="text;strokeColor=#666666;fillColor=#f5f5f5;align=left;verticalAlign=top;spacingLeft=4;spacingRight=4;overflow=hidden;rotatable=0;points=[[0,0.5],[1,0.5]];portConstraint=eastwest;whiteSpace=wrap;html=1;fontColor=#333333;" vertex="1" parent="B6jd7QzCgzBGUs_DWfSZ-2">
          <mxGeometry y="26" width="510" height="26" as="geometry" />
        </mxCell>
        <mxCell id="B6jd7QzCgzBGUs_DWfSZ-4" value="" style="line;strokeWidth=1;fillColor=none;align=left;verticalAlign=middle;spacingTop=-1;spacingLeft=3;spacingRight=3;rotatable=0;labelPosition=right;points=[];portConstraint=eastwest;strokeColor=inherit;" vertex="1" parent="B6jd7QzCgzBGUs_DWfSZ-2">
          <mxGeometry y="52" width="510" height="8" as="geometry" />
        </mxCell>
        <mxCell id="B6jd7QzCgzBGUs_DWfSZ-6" value="if(!edu-&amp;gt;&lt;b&gt;cpu_rw_realized&lt;/b&gt;)&amp;nbsp;&lt;div&gt;&amp;nbsp; &amp;nbsp; &lt;span style=&quot;background-color: rgb(255, 229, 153);&quot;&gt;&lt;b style=&quot;&quot;&gt;set_cpurw_callback&lt;/b&gt;(&amp;amp;edu-&amp;gt;cpu_rw_realized, (void*)cpu_physical_memory_rw)&lt;/span&gt;&lt;/div&gt;" style="text;strokeColor=default;fillColor=none;align=left;verticalAlign=top;spacingLeft=4;spacingRight=4;overflow=hidden;rotatable=0;points=[[0,0.5],[1,0.5]];portConstraint=eastwest;whiteSpace=wrap;html=1;dashed=1;dashPattern=1 4;" vertex="1" parent="B6jd7QzCgzBGUs_DWfSZ-2">
          <mxGeometry y="60" width="510" height="50" as="geometry" />
        </mxCell>
        <mxCell id="B6jd7QzCgzBGUs_DWfSZ-5" value="if (PCI_BAR_UNMAPPED == edu-&amp;gt;viv_mem_base) {&lt;div&gt;&amp;nbsp; &amp;nbsp; &lt;span&gt;edu-&amp;gt;viv_mem_base = &lt;b style=&quot;background-color: light-dark(rgb(204, 255, 255), rgb(33, 66, 16));&quot;&gt;pci_get_bar_addr&lt;/b&gt;(&amp;amp;edu-&amp;gt;pdev, VIV_VF_MEMORY_BAR_INDEX)&lt;br&gt;&lt;span&gt;&amp;nbsp; &amp;nbsp; &lt;span style=&quot;background-color: rgb(255, 229, 153);&quot;&gt;set_base_phys(edu-&amp;gt;viv_mem_base, edu-&amp;gt;vf_dev_id, edu-&amp;gt;viv_edu_id)&lt;/span&gt;&lt;/span&gt;&lt;/span&gt;&lt;/div&gt;&lt;div&gt;&amp;nbsp; &amp;nbsp; &lt;span style=&quot;background-color: rgb(255, 229, 153);&quot;&gt;set_mem_size(MEMORY_BLOCK_SIZE, edu-&amp;gt;vf_dev_id, edu-&amp;gt;viv_edu_id)&lt;/span&gt;&lt;/div&gt;&lt;div&gt;}&lt;/div&gt;" style="text;strokeColor=default;fillColor=none;align=left;verticalAlign=top;spacingLeft=4;spacingRight=4;overflow=hidden;rotatable=0;points=[[0,0.5],[1,0.5]];portConstraint=eastwest;whiteSpace=wrap;html=1;dashed=1;dashPattern=1 4;" vertex="1" parent="B6jd7QzCgzBGUs_DWfSZ-2">
          <mxGeometry y="110" width="510" height="100" as="geometry" />
        </mxCell>
        <mxCell id="B6jd7QzCgzBGUs_DWfSZ-7" value="if (&lt;b&gt;is_read_write_dma&lt;/b&gt;(edu, addr, size)) {&lt;div&gt;&amp;nbsp; &amp;nbsp; &lt;b&gt;dma_reg_rw&lt;/b&gt;(edu, false, addr, &amp;amp;tmp_val);&lt;/div&gt;&lt;div&gt;} else {&lt;/div&gt;&lt;div&gt;&amp;nbsp; &amp;nbsp; &lt;span style=&quot;background-color: rgb(255, 229, 153);&quot;&gt;&lt;b style=&quot;&quot;&gt;read_reg&lt;/b&gt;(addr, &amp;amp;tmp_val, edu-&amp;gt;vf_dev_id, edu-&amp;gt;viv_edu_id);&lt;/span&gt;&lt;/div&gt;&lt;div&gt;}&lt;/div&gt;&lt;div&gt;&lt;br&gt;&lt;/div&gt;&lt;div&gt;&lt;br&gt;&lt;/div&gt;" style="text;strokeColor=default;fillColor=none;align=left;verticalAlign=top;spacingLeft=4;spacingRight=4;overflow=hidden;rotatable=0;points=[[0,0.5],[1,0.5]];portConstraint=eastwest;whiteSpace=wrap;html=1;dashed=1;dashPattern=1 4;" vertex="1" parent="B6jd7QzCgzBGUs_DWfSZ-2">
          <mxGeometry y="210" width="510" height="90" as="geometry" />
        </mxCell>
        <mxCell id="B6jd7QzCgzBGUs_DWfSZ-8" value="Classname" style="swimlane;fontStyle=1;align=center;verticalAlign=top;childLayout=stackLayout;horizontal=1;startSize=26;horizontalStack=0;resizeParent=1;resizeParentMax=0;resizeLast=0;collapsible=1;marginBottom=0;whiteSpace=wrap;html=1;" vertex="1" parent="1">
          <mxGeometry x="920" y="90" width="160" height="86" as="geometry" />
        </mxCell>
        <mxCell id="B6jd7QzCgzBGUs_DWfSZ-9" value="+ field: type" style="text;strokeColor=none;fillColor=none;align=left;verticalAlign=top;spacingLeft=4;spacingRight=4;overflow=hidden;rotatable=0;points=[[0,0.5],[1,0.5]];portConstraint=eastwest;whiteSpace=wrap;html=1;" vertex="1" parent="B6jd7QzCgzBGUs_DWfSZ-8">
          <mxGeometry y="26" width="160" height="26" as="geometry" />
        </mxCell>
        <mxCell id="B6jd7QzCgzBGUs_DWfSZ-10" value="" style="line;strokeWidth=1;fillColor=none;align=left;verticalAlign=middle;spacingTop=-1;spacingLeft=3;spacingRight=3;rotatable=0;labelPosition=right;points=[];portConstraint=eastwest;strokeColor=inherit;" vertex="1" parent="B6jd7QzCgzBGUs_DWfSZ-8">
          <mxGeometry y="52" width="160" height="8" as="geometry" />
        </mxCell>
        <mxCell id="B6jd7QzCgzBGUs_DWfSZ-11" value="+ method(type): type" style="text;strokeColor=none;fillColor=none;align=left;verticalAlign=top;spacingLeft=4;spacingRight=4;overflow=hidden;rotatable=0;points=[[0,0.5],[1,0.5]];portConstraint=eastwest;whiteSpace=wrap;html=1;" vertex="1" parent="B6jd7QzCgzBGUs_DWfSZ-8">
          <mxGeometry y="60" width="160" height="26" as="geometry" />
        </mxCell>
        <mxCell id="B6jd7QzCgzBGUs_DWfSZ-15" value="edu.c" style="swimlane;fontStyle=1;align=center;verticalAlign=top;childLayout=stackLayout;horizontal=1;startSize=26;horizontalStack=0;resizeParent=1;resizeParentMax=0;resizeLast=0;collapsible=1;marginBottom=0;whiteSpace=wrap;html=1;" vertex="1" parent="1">
          <mxGeometry x="30" y="450" width="510" height="300" as="geometry" />
        </mxCell>
        <mxCell id="B6jd7QzCgzBGUs_DWfSZ-16" value="&lt;b&gt;void edu_mmio_write(void *opaque, hwaddr addr, uint64_t val, unsigned size)&amp;nbsp;&lt;/b&gt;" style="text;strokeColor=#666666;fillColor=#f5f5f5;align=left;verticalAlign=top;spacingLeft=4;spacingRight=4;overflow=hidden;rotatable=0;points=[[0,0.5],[1,0.5]];portConstraint=eastwest;whiteSpace=wrap;html=1;fontColor=#333333;" vertex="1" parent="B6jd7QzCgzBGUs_DWfSZ-15">
          <mxGeometry y="26" width="510" height="26" as="geometry" />
        </mxCell>
        <mxCell id="B6jd7QzCgzBGUs_DWfSZ-17" value="" style="line;strokeWidth=1;fillColor=none;align=left;verticalAlign=middle;spacingTop=-1;spacingLeft=3;spacingRight=3;rotatable=0;labelPosition=right;points=[];portConstraint=eastwest;strokeColor=inherit;" vertex="1" parent="B6jd7QzCgzBGUs_DWfSZ-15">
          <mxGeometry y="52" width="510" height="8" as="geometry" />
        </mxCell>
        <mxCell id="B6jd7QzCgzBGUs_DWfSZ-18" value="if(!edu-&amp;gt;&lt;b&gt;cpu_rw_realized&lt;/b&gt;)&amp;nbsp;&lt;div&gt;&amp;nbsp; &amp;nbsp; &lt;span style=&quot;background-color: rgb(255, 229, 153);&quot;&gt;&lt;b style=&quot;&quot;&gt;set_cpurw_callback&lt;/b&gt;(&amp;amp;edu-&amp;gt;cpu_rw_realized, (void*)cpu_physical_memory_rw)&lt;/span&gt;&lt;/div&gt;" style="text;strokeColor=default;fillColor=none;align=left;verticalAlign=top;spacingLeft=4;spacingRight=4;overflow=hidden;rotatable=0;points=[[0,0.5],[1,0.5]];portConstraint=eastwest;whiteSpace=wrap;html=1;dashed=1;dashPattern=1 4;" vertex="1" parent="B6jd7QzCgzBGUs_DWfSZ-15">
          <mxGeometry y="60" width="510" height="50" as="geometry" />
        </mxCell>
        <mxCell id="B6jd7QzCgzBGUs_DWfSZ-19" value="if (PCI_BAR_UNMAPPED == &lt;span style=&quot;background-color: light-dark(rgb(204, 255, 255), rgb(33, 66, 16));&quot;&gt;edu-&amp;gt;viv_mem_base&lt;/span&gt;) {&lt;div&gt;&amp;nbsp; &amp;nbsp; &lt;span&gt;edu-&amp;gt;viv_mem_base = &lt;b style=&quot;background-color: light-dark(rgb(204, 255, 255), rgb(33, 66, 16));&quot;&gt;pci_get_bar_addr&lt;/b&gt;(&amp;amp;edu-&amp;gt;pdev, VIV_VF_MEMORY_BAR_INDEX)&lt;br&gt;&amp;nbsp; &amp;nbsp; &lt;span style=&quot;background-color: rgb(255, 229, 153);&quot;&gt;set_base_phys(&lt;/span&gt;&lt;span style=&quot;background-color: light-dark(rgb(204, 255, 255), rgb(33, 66, 16));&quot;&gt;edu-&amp;gt;viv_mem_base&lt;/span&gt;&lt;span style=&quot;background-color: rgb(255, 229, 153);&quot;&gt;, edu-&amp;gt;vf_dev_id, edu-&amp;gt;viv_edu_id)&lt;/span&gt;&lt;/span&gt;&lt;/div&gt;&lt;div&gt;&amp;nbsp; &amp;nbsp; &lt;span style=&quot;background-color: rgb(255, 229, 153);&quot;&gt;set_mem_size(MEMORY_BLOCK_SIZE, edu-&amp;gt;vf_dev_id, edu-&amp;gt;viv_edu_id)&lt;/span&gt;&lt;/div&gt;&lt;div&gt;}&lt;/div&gt;" style="text;strokeColor=default;fillColor=none;align=left;verticalAlign=top;spacingLeft=4;spacingRight=4;overflow=hidden;rotatable=0;points=[[0,0.5],[1,0.5]];portConstraint=eastwest;whiteSpace=wrap;html=1;dashed=1;dashPattern=1 4;" vertex="1" parent="B6jd7QzCgzBGUs_DWfSZ-15">
          <mxGeometry y="110" width="510" height="100" as="geometry" />
        </mxCell>
        <mxCell id="B6jd7QzCgzBGUs_DWfSZ-20" value="if (&lt;b&gt;is_read_write_dma&lt;/b&gt;(edu, addr, size)) {&lt;div&gt;&amp;nbsp; &amp;nbsp; &lt;b&gt;dma_reg_rw&lt;/b&gt;(edu, false, addr, &amp;amp;tmp_val);&lt;/div&gt;&lt;div&gt;} else {&lt;/div&gt;&lt;div&gt;&amp;nbsp; &amp;nbsp; &lt;span style=&quot;background-color: rgb(255, 229, 153);&quot;&gt;&lt;b style=&quot;&quot;&gt;write_reg&lt;/b&gt;(addr, val, edu-&amp;gt;vf_dev_id, edu-&amp;gt;viv_edu_id);&lt;/span&gt;&lt;/div&gt;&lt;div&gt;}&lt;/div&gt;&lt;div&gt;&lt;br&gt;&lt;/div&gt;&lt;div&gt;&lt;br&gt;&lt;/div&gt;" style="text;strokeColor=default;fillColor=none;align=left;verticalAlign=top;spacingLeft=4;spacingRight=4;overflow=hidden;rotatable=0;points=[[0,0.5],[1,0.5]];portConstraint=eastwest;whiteSpace=wrap;html=1;dashed=1;dashPattern=1 4;" vertex="1" parent="B6jd7QzCgzBGUs_DWfSZ-15">
          <mxGeometry y="210" width="510" height="90" as="geometry" />
        </mxCell>
      </root>
    </mxGraphModel>
  </diagram>
</mxfile>
